PathFileType	4	(X/Y/Z)	C:/Users/beibeiliu/ov580/test_trc/User1\sequence.30_training_dense_right.trc
DataRate	CameraRate	NumFrames	NumMarkers	Units	OrigDataRate	OrigDataStartFrame	OrigNumFrames
120	120	22	19	mm	120	1	227
Frame#	Time	ThumbCMC			ThumbMCP			ThumbIP			ThumbTip			IndexMCP			IndexPIP			IndexTip			MiddleMCP			MiddlePIP			MiddleTip			RingMCP			RingPIP			RingTip			PinkyMCP			PinkyPIP			PinkyTip			BackHand1			BackHand2			BackHand3	
		X0	Y0	Z0	X1	Y1	Z1	X2	Y2	Z2	X3	Y3	Z3	X4	Y4	Z4	X5	Y5	Z5	X6	Y6	Z6	X7	Y7	Z7	X8	Y8	Z8	X9	Y9	Z9	X10	Y10	Z10	X11	Y11	Z11	X12	Y12	Z12	X13	Y13	Z13	X14	Y14	Z14	X15	Y15	Z15	X16	Y16	Z16	X17	Y17	Z17	X18	Y18	Z18	
0	0	149.522	-29.1653	82.6876	120	-32.0016	66.6675	102.905	-33.2946	44.3508	86.8892	-36.362	29.4698	163.777	-24.0665	-2.34634	163.541	-22.9704	-31.4412	163.073	-20.2994	-52.8407	197.368	-23.601	-5.75238	197.841	-17.7119	-32.6938	207.442	-12.8302	-61.2736	216.184	-36.9539	-0.245525	223.159	-32.8136	-26.7139	232.189	-31.477	-51.5574	233.101	-62.844	16.2682	243.865	-70.8758	-0.4024	255.051	-74.9002	-18.9713	212.059	-31.537	50.4438	213.904	-22.8935	84.747	180.713	-16.4654	66.8224	
1	0.00833333	147.609	-26.6685	76.5181	124.216	-31.867	65.2535	104.756	-31.2611	40.8339	85.2024	-33.3826	30.6244	164.978	-23.6571	-3.59671	163.371	-20.1181	-32.0282	168.448	-20.7153	-58.008	194.907	-23.5304	-6.34668	199.589	-17.1829	-37.7182	209.259	-12.7154	-63.9316	215.54	-36.945	-3.28918	228.078	-36.7629	-23.7796	232.646	-34.0446	-52.0537	231.622	-65.2245	16.3307	243.631	-74.6788	-1.51158	251.709	-79.275	-23.7549	212.179	-33.1456	49.8361	214.501	-25.276	83.6523	181.525	-15.1417	62.5955	
2	0.0166667	147.721	-25.6734	80.8198	124.742	-31.0416	61.5892	104.476	-28.9876	41.0445	88.5867	-31.6627	26.9511	166.879	-23.931	-4.96668	164.006	-21.0373	-29.2933	170.39	-22.1057	-55.7207	197.526	-23.7184	-11.89	201.096	-18.6847	-37.8338	212.003	-14.5888	-65.7938	219.076	-40.4231	-1.89056	225.595	-38.3016	-24.8665	234.461	-38.609	-51.2903	232.69	-67.156	14.6549	241.944	-77.6643	0.81911	250.76	-81.337	-19.977	213.997	-34.9741	48.3601	218.498	-27.3946	80.5287	185.035	-15.9445	63.3969	
3	0.025	147.643	-23.6708	77.2403	123.836	-27.7092	63.8927	105.929	-26.9276	38.4469	87.1548	-28.6852	25.9477	166.49	-22.907	-3.79418	166.212	-21.0482	-34.159	173.597	-22.6747	-57.7322	202.669	-26.2245	-9.50078	207.196	-21.2597	-38.5684	216.029	-18.7061	-64.3414	219.496	-39.9454	-3.50199	229.512	-39.2712	-28.2345	234.846	-40.6008	-52.2338	232.147	-68.2358	15.9313	239.998	-77.7875	2.0284	252.464	-85.0406	-22.7063	212.957	-33.1178	48.1139	217.257	-29.4624	83.379	182.623	-15.6179	59.5348	
4	0.0333333	147.847	-21.2564	75.4579	125.573	-26.2229	62.0238	106.936	-24.2791	39.361	88.7532	-25.9641	24.5851	170.153	-22.6535	-7.74209	168.188	-20.4549	-31.1782	175.777	-23.6545	-57.1665	199.483	-25.7746	-6.78163	207.25	-22.4391	-38.9094	215.405	-19.4856	-62.9928	218.32	-42.976	1.10681	227.993	-40.5009	-29.1897	236.967	-41.6633	-52.9017	232.036	-70.1937	19.4266	241.642	-80.291	-1.9041	250.957	-87.6225	-22.7952	213.933	-35.0617	51.6351	221.179	-29.7739	83.4982	188.784	-17.5189	63.3776	
5	0.0416667	149.266	-21.526	73.8115	128.085	-26.2516	60.141	110.39	-24.6331	41.8519	92.0281	-23.9779	26.5927	168.882	-22.302	-6.68985	174.079	-22.7383	-33.962	173.198	-20.4124	-60.6152	203.507	-28.1432	-6.76086	211.108	-25.0248	-35.0448	216.957	-22.1748	-61.9471	219.431	-43.8107	-2.49948	231.176	-44.1552	-25.2163	234.85	-45.0818	-49.6537	233.926	-73.6806	16.9438	239.075	-80.1399	0.751158	252.82	-89.6956	-23.2525	218.298	-39.3945	49.1962	218.972	-31.5932	80.6697	189.835	-18.3272	59.1902	
6	0.05	152.342	-22.2107	74.5528	126.886	-21.7994	61.862	107.897	-18.7238	39.8436	90.294	-19.7003	27.4157	171.616	-22.6318	-6.90196	171.161	-19.9865	-34.4944	179.175	-23.632	-59.3423	202.882	-27.3624	-8.17062	210.364	-25.7244	-35.6801	219.625	-24.3801	-63.9603	223.824	-47.1852	-1.33061	232.756	-47.3917	-25.1298	238.882	-49.1441	-48.6446	230.429	-73.7612	18.4042	240.82	-86.634	0.49767	250.544	-93.7141	-23.4637	216.292	-37.9402	51.7321	217.695	-32.0624	82.8947	189.026	-18.2227	59.8263	
7	0.0583333	153.109	-19.266	78.8078	128.813	-18.6512	61.2505	111.029	-15.439	40.2898	92.6127	-13.9873	24.7989	172.38	-19.9956	-7.17107	176.012	-21.5891	-36.2486	179.833	-21.9444	-61.9466	206.243	-30.1422	-9.71983	212.487	-27.7276	-37.2513	225.112	-27.6392	-67.1041	224.438	-50.5485	-1.66366	234.373	-51.0742	-25.9896	237.095	-50.9983	-49.013	229.258	-76.0467	20.0153	236.15	-86.5806	2.70575	248.856	-96.1486	-20.0309	217.124	-38.7549	47.3964	219.781	-33.2303	84.7744	189.451	-16.0466	62.6793	
8	0.0666667	156.797	-19.2114	73.1878	130.597	-16.1764	61.0841	114.991	-13.1912	41.0413	95.2348	-10.1893	26.5473	176.006	-21.2417	-8.78441	177.588	-19.925	-34.9189	182.607	-23.6925	-57.6146	208.081	-31.3441	-8.46092	215.378	-29.5474	-39.4838	222.257	-29.4038	-62.341	221.408	-50.1829	1.41587	231.083	-52.2781	-24.2492	239.842	-55.1413	-51.6037	229.49	-79.794	18.7899	234.066	-90.2629	-0.0972773	245.395	-100.806	-16.789	221.337	-42.9294	49.0597	223.239	-37.6718	81.6236	194.008	-19.0349	63.3356	
9	0.075	156.945	-15.3271	77.5854	131.336	-14.0687	60.0523	115.601	-8.9601	40.9643	96.7775	-5.11774	24.4057	179.403	-21.4349	-8.82345	176.968	-19.3301	-31.9532	183.128	-23.1495	-60.9005	207.605	-29.1608	-11.4609	216.08	-29.913	-39.3572	223.316	-29.0028	-63.0792	222.375	-52.3116	1.27468	230.454	-53.7466	-24.7514	237.739	-57.5343	-50.7177	229.355	-83.3929	19.45	233.383	-92.9108	1.00107	241.993	-100.182	-20.4156	215.99	-43.1494	51.063	222.993	-39.8529	80.3444	197.907	-18.8236	63.7047	
10	0.0833333	160.107	-15.1246	73.4719	131.802	-8.79319	57.4784	114.191	-4.13689	38.936	98.0884	-2.3583	22.1322	178.569	-19.3594	-5.90374	178.911	-18.2995	-36.549	186.816	-24.055	-58.4683	209.614	-32.3206	-10.8451	218.249	-32.4152	-35.4275	226.042	-32.3561	-63.6527	224.329	-55.0186	-2.26916	231.924	-56.7036	-25.5017	237.803	-61.1163	-50.7281	227.037	-86.3347	19.4473	230.624	-95.2971	0.953283	240.342	-105.735	-22.6384	216.528	-43.9078	52.2071	223.039	-38.681	83.6633	196.668	-20.1547	63.4697	
11	0.0916667	159.755	-13.0605	77.179	136.865	-10.506	57.5852	116.835	-1.83302	34.0255	98.7438	2.68101	19.5792	178.608	-17.7322	-9.06226	182.073	-18.964	-36.2279	186.072	-22.2233	-62.0712	207.604	-31.5634	-8.56755	218.562	-32.3289	-37.5127	225.525	-31.1469	-64.6165	223.347	-55.684	-1.90804	231.75	-59.8435	-25.4793	236.426	-63.6714	-53.4463	223.311	-85.6871	13.9992	229.103	-99.6975	-1.09927	236.526	-110.293	-20.0644	218.49	-46.6138	46.8833	222.022	-40.4598	81.7059	194.969	-17.6596	58.6938	
12	0.1	159.903	-8.80303	75.4475	137.396	-6.49808	56.5903	120.268	-0.0602658	37.7183	103.163	5.59542	21.9313	180.534	-15.5502	-11.6336	183.271	-18.8687	-36.389	184.115	-20.1935	-58.4705	210.051	-31.5095	-13.388	220.329	-36.0474	-39.951	227.849	-36.4006	-64.847	221.578	-56.8563	-3.70552	232.082	-63.5255	-28.5855	234.421	-64.7573	-53.454	221.699	-89.2082	15.4975	223.24	-100.154	-0.854635	228.899	-111.435	-21.8353	218.224	-45.0601	47.7821	221.06	-42.2864	80.7133	198.183	-16.0094	61.8677	
13	0.108333	164.351	-9.946	71.9311	138.371	-2.90724	55.2862	124.172	3.22434	34.4256	106.156	9.31469	21.8284	183.809	-18.4353	-8.87018	185.828	-18.9719	-36.1144	188.197	-19.8935	-63.7413	212.466	-37.022	-8.34969	219.786	-37.5204	-35.8711	230.437	-39.0038	-66.4175	222.123	-61.5298	-3.87923	226.057	-62.0644	-27.7599	232.524	-69.7812	-49.5177	217.513	-91.0641	19.2327	217.713	-105.09	-1.04202	220.955	-111.921	-20.2941	216.794	-47.171	50.9502	221.481	-44.1402	79.6949	199.794	-15.7911	61.7986	
14	0.116667	165.032	-6.49828	71.4689	139.347	2.56801	57.0918	126.22	7.93572	34.1483	108.406	15.5882	15.2547	185.334	-14.829	-12.7639	187.334	-18.6411	-38.7105	188.815	-18.856	-61.3009	210.342	-34.6858	-11.2277	219.969	-39.2342	-35.24	229.736	-39.7355	-65.4335	219.614	-64.0059	-2.8272	226.506	-67.2298	-30.8089	229.687	-72.1806	-55.165	211.73	-91.4328	17.5729	213.124	-106.301	2.16227	213.739	-117.034	-23.6532	217.679	-52.0403	49.4468	220.527	-44.0377	81.2688	200.536	-18.5365	57.9497	
15	0.125	166.965	-2.42661	70.5176	142.954	3.70202	54.7895	128.623	12.7994	34.146	113.101	18.6325	17.7412	186.739	-13.6271	-11.9349	187.54	-15.4805	-38.9468	190.896	-17.0767	-61.4523	211.669	-36.85	-13.0767	219.127	-36.9368	-39.8293	228.751	-39.4203	-63.6374	214.533	-61.9727	-5.75508	222.627	-71.7888	-26.64	225.25	-77.2332	-53.7833	206.84	-93.213	16.302	204.439	-106.723	0.217405	203.412	-116.761	-23.7951	218.025	-54.0802	50.2045	222.388	-49.212	79.1	202.26	-19.0776	61.1958	
16	0.133333	169.903	-3.86403	71.5178	144.765	8.22772	53.7202	132.273	14.6147	29.3934	115.506	23.2156	14.6884	188.487	-13.1452	-12.3245	189.124	-13.4187	-36.9839	195.411	-20.1406	-62.7898	210.592	-36.5399	-9.32544	218.157	-39.032	-36.266	230.25	-46.6287	-60.9592	209.748	-63.6554	-1.83654	215.072	-72.9655	-31.2359	216.841	-79.1173	-56.1081	201.36	-93.2831	18.5319	193.592	-106.772	-2.98218	189.641	-117.4	-25.2998	215.643	-53.3064	50.5123	221.226	-50.0391	82.6337	203.576	-20.1996	62.1879	
17	0.141667	171.617	1.20221	70.0349	147.961	8.21621	50.1322	134.027	19.6192	32.6261	120.188	27.3355	17.2952	190.9	-15.0698	-12.2028	192.425	-16.258	-36.7733	195.467	-20.6147	-60.1611	211.198	-40.6867	-11.7445	219.656	-43.0108	-38.4674	229.573	-44.6656	-62.8648	206.432	-64.7233	-6.0151	209.145	-77.9736	-33.4365	206.418	-81.2046	-55.3695	194.17	-93.4446	13.8132	184.705	-107.425	-2.68261	179.138	-119.8	-21.3885	214.62	-55.5302	49.767	220.013	-50.8041	83.9633	203.712	-17.4649	61.3843	
18	0.15	172.887	5.10335	74.4191	150.36	12.4344	50.9002	136.514	23.3617	33.3167	122.542	32.7366	15.4009	189.812	-11.4701	-9.4522	192.365	-15.4729	-33.6174	198.227	-22.4637	-61.3439	210.315	-38.0029	-12.4583	217.008	-44.6489	-33.8744	229.663	-51.3087	-62.2498	203.64	-69.6136	-1.69565	203.472	-76.7445	-29.1807	197.802	-84.9062	-55.9297	189.806	-91.7989	17.3773	176.321	-104.753	-2.76099	166.551	-114.489	-18.5512	211.307	-52.2345	47.6676	215.467	-49.3182	81.5144	206.226	-19.7251	60.6112	
19	0.158333	174.402	5.87351	71.2527	153.1	12.6148	49.7049	140.356	22.4967	32.3054	125.482	34.181	14.2436	189.378	-11.8873	-7.16733	192.717	-13.8014	-34.2994	196.173	-17.2955	-58.0983	209.763	-43.2177	-11.0866	216.547	-45.6196	-36.3515	227.967	-50.6221	-63.4738	199.676	-69.993	-6.76475	197.283	-76.0451	-32.6331	188.981	-86.7083	-58.35	183.601	-89.196	17.2781	169.584	-101.919	0.588308	153.668	-107.651	-22.6444	209.516	-52.7033	45.4378	216.053	-51.8244	78.5679	206.603	-20.5031	62.3791	
20	0.166667	175.445	3.25507	69.9356	154.096	14.6891	53.8149	140.368	29.1014	31.8256	129.192	33.3137	12.9044	191.715	-14.8517	-8.56658	193.636	-11.4904	-34.1044	196.87	-16.6872	-58.8889	207.007	-39.084	-7.95173	215.025	-45.4715	-33.3524	226.072	-49.246	-64.8865	196.148	-68.3203	-6.91212	190.933	-76.8003	-34.5278	181.141	-88.4502	-53.8443	176.885	-92.8768	16.9907	161.94	-100.451	3.21705	142.803	-105.669	-16.824	209.262	-58.3645	50.7313	215.642	-54.6626	81.7951	204.67	-17.394	57.2589	
21	0.175	177.434	6.42776	69.7366	155.26	15.1004	49.2396	143.238	31.1078	29.8608	130.818	38.2974	15.4888	193.677	-12.2573	-11.5561	195.766	-10.9624	-31.7229	200.202	-16.5507	-61.8902	207.31	-41.7147	-10.395	214.36	-44.0101	-38.143	223.866	-53.041	-63.5496	192.186	-71.2142	-7.71983	184.829	-77.6875	-30.8456	170.949	-86.9013	-53.5431	170.167	-90.903	14.5929	153.041	-94.0888	1.5799	132.753	-95.543	-15.4822	207.232	-53.722	50.4231	212.344	-54.3604	81.8441	207.451	-22.0263	61.2331	
